# xmcd
#
# Track frame offsets:
#	150
#	17792
#	32517
#	49810
#	67955
#	82722
#	100882
#	121105
#	139907
#	154245
#	173800
#	190755
#	205207
#	223925
#	241792
#
# Disc length: 3455 seconds
#
# Revision: 1
# Processed by: cddbd v1.5.2PL0 Copyright (c) Steve Scherf et al.
# Submitted via: audiograbber 1.83.01
#
DISCID=c40d7d0f
DTITLE=Michelle - So Was Wie Liebe
DYEAR=2000
DGENRE=Pop
TTITLE0=Wirst Du Noch Da Sein
TTITLE1=Immer Wieder Gänsehaut
TTITLE2=Die Hölle Ist Heiß
TTITLE3=So Was Wie Liebe
TTITLE4=Tagträumer
TTITLE5=Gebor'n, Um Dich Glücklich Zu Machen
TTITLE6=Blue Angel, Was Bleibt Ist Ein Kühler Morgen
TTITLE7=Flüstern Im Wind
TTITLE8=Rühr Mich Nicht An
TTITLE9=Kinderaugen
TTITLE10=Wehe Ich Weine
TTITLE11=Ich Will Vielleicht Immer Mit Dir
TTITLE12=Jenseits Der Wolken
TTITLE13=Wenn Du Gehst
TTITLE14=Tausend Und Ein Tag
EXTD=
EXTT0=
EXTT1=
EXTT2=
EXTT3=
EXTT4=
EXTT5=
EXTT6=
EXTT7=
EXTT8=
EXTT9=
EXTT10=
EXTT11=
EXTT12=
EXTT13=
EXTT14=
PLAYORDER=
